<svg xmlns="http://www.w3.org/2000/svg" xmlns:xlink="http://www.w3.org/1999/xlink" width="1000" height="1000" viewBox="0 0 1000 1000">
  <defs>
    <radialGradient id="radial-gradient" cx="0.145" cy="0.206" r="1.169" gradientTransform="translate(0.002 0.002) scale(0.994 0.994)" gradientUnits="objectBoundingBox">
      <stop offset="0" stop-color="#72d4ff"/>
      <stop offset="1" stop-color="#3296d8"/>
    </radialGradient>
  </defs>
  <path id="globe" d="M534.6,1036.677c-31.412-3.57-68.408-10.887-70.256-13.9-1.122-1.826,3.991-4.5,11.361-5.936,17.628-3.442,17.931-3.442,44.89-.126,15.329,1.886,24.171,1.3,26.03-1.722,1.982-3.227,7.656-2.629,19.215,2.024,14.708,5.921,26.206,6.2,45.28,1.089,3.626-.971,5.7.712,5,4.051-.846,4.015,1,4.777,6.2,2.566,4.074-1.73,12.991-2.843,19.815-2.472l12.408.674-9.968-7.063-9.968-7.063,9.467-3.523c6.039-2.248,11.554-1.781,15.232,1.291,7.4,6.179,58.286,1.771,78.722-6.819,8.1-3.4,20.543-6.255,27.658-6.336s17.59-2.824,23.278-6.094c11.5-6.611,20.68-7.946,20.68-3.007,0,3.75-40.551,21.922-76.516,34.29-48.843,16.8-138.2,24.93-198.53,18.075ZM645.077,969.9c-14.859-6.142-23.162-20.993-16.433-29.392,2.939-3.669,2.494-5.22-1.51-5.265-3.989-.045-4.26-.973-.912-3.121,2.621-1.682,6.026-12.42,7.569-23.863A333.13,333.13,0,0,1,642,868.725c2.971-10.3,5.373-22.469,5.338-27.048-.067-8.816,3.556-36.576,7.783-59.629q5.08-27.708-24.422-42.885c-8.715-4.473-16.859-11.326-18.1-15.227-6.148-19.383-20.449-48.4-31.845-64.613-11.125-15.829-3.53-49.653,14.857-66.169,11.1-9.966,12.992-14.325,11.882-27.309-.726-8.5-2.823-16.386-4.658-17.531a9.289,9.289,0,0,1-3.733-6.242c-.217-2.289-2.721-4.161-5.565-4.161a4.108,4.108,0,0,0-4.173,5.09c1.293,6.6-23.5,1.99-31.26-5.814-3.016-3.035-7.212-5.517-9.325-5.517s-3.841-2.482-3.841-5.517c0-8.916-17.464-22.478-33.089-25.693-7.962-1.639-18.556-6.746-23.541-11.35-6.077-5.612-15.979-8.746-30.039-9.51-21.55-1.17-43.712-11.784-39.369-18.854,1.347-2.193-3.126-3.979-9.964-3.979-15.5,0-20.275-6.975-10.208-14.9,4.209-3.314,5.625-5.53,3.148-4.925-3.755.917-19.652-15.327-31.5-32.189-1.608-2.289-8.58-10.715-15.492-18.725l-12.568-14.564,6.485,13.524c3.567,7.438,8.152,13.524,10.189,13.524s2.7,2.619,1.483,5.821-.232,7.057,2.2,8.568,4.418,5.736,4.418,9.388c0,5.784-1.068,5.669-8.272-.89-4.55-4.142-8.272-10.109-8.272-13.259s-2.847-6.827-6.327-8.17c-3.864-1.492-5.409-5.355-3.968-9.922,1.3-4.114.422-8.684-1.945-10.156s-4.3-6.038-4.3-10.145-4.484-12.337-9.964-18.286c-15.2-16.5-19.383-43.155-10.3-65.673,8.336-20.677,9.948-37.076,3.646-37.076-2.379,0-3.134-4.333-1.733-9.949,1.365-5.472.47-11.2-1.989-12.729s-4.471.118-4.471,3.707c0,3.568-1.932,6.487-4.293,6.487s-3.933-4.213-3.493-9.363c1.518-17.768-.512-23.926-7.884-23.926-9.392,0-38.568,14.837-42.836,21.782-1.779,2.9-4.7,5.288-6.487,5.315s-11.857,6.04-22.372,13.36-20.213,12.21-21.55,10.866,3.533-6.485,10.819-11.425,13.884-12.661,14.662-17.158,8.236-14.258,16.573-21.689,11.648-12.284,7.356-10.78C237.8,197.37,243.42,185.324,256.31,179c5.843-2.868,11.736-9.421,13.1-14.564,3.27-12.362,31.84-32.2,46.644-32.383,6.461-.08,22.914-2.533,36.563-5.451s31.671-4.839,40.049-4.269c12.52.851,15.133-.313,14.667-6.538-.46-6.141-1.936-6.713-7.808-3.024-3.983,2.5-8.521,3.261-10.086,1.687-3.954-3.978,6.285-15.548,13.758-15.548,3.6,0,5.209-2.44,3.889-5.9-1.483-3.888,2.953-8.206,13-12.656,8.388-3.715,11.528-5.9,6.978-4.859-10.917,2.5-35.391,11.128-44.406,15.651a41.155,41.155,0,0,1-15.51,3.6c-4.581,0-8.328,1.651-8.328,3.668,0,3.616-29.48,15.519-49.631,20.039-8.955,2.009-8.4.978,4.136-7.691,44.787-30.972,84.6-48.024,145.962-62.521,31.461-7.432,51.047-9.021,112.539-9.129,74.192-.13,129.855,6.574,117.643,14.168-3.066,1.906-7.133,2.5-9.037,1.313s-22.792-2.717-46.415-3.406c-36.051-1.051-42.583-.288-40.662,4.748,1.259,3.3,4.621,5.1,7.473,4,7.1-2.742,40.5,14.794,62.113,32.607,9.8,8.078,19.382,14.688,21.3,14.688s5.9,3.892,8.848,8.649c4.7,7.574,4.362,8.914-2.73,10.78-10.65,2.8-13.556,19.713-6.732,39.173,3,8.551,4.552,16.453,3.451,17.56-3.782,3.8-28.223-11.156-44.159-27.031-8.775-8.741-17.945-14.656-20.377-13.144s-3.23.809-1.76-1.583-.195-6.717-3.685-9.632-5.39-7.808-4.22-10.874c1.195-3.132-.592-5.575-4.078-5.575-3.412,0-7.275-2.809-8.585-6.242s-4.362-6.242-6.783-6.242-7.422-2.75-11.114-6.111c-4.946-4.5-9.928-5.145-18.938-2.438-6.724,2.02-9.754,3.834-6.732,4.031,8.917.58,38.529,33.187,37.248,41.017-.647,3.957.05,9.157,1.55,11.555s1.041,7.079-1.019,10.4c-3.182,5.136-6.4,4.636-21.44-3.331-9.733-5.156-20.844-9.369-24.692-9.363-9.371.015-13.713-7.763-6-10.743a16.984,16.984,0,0,0,8.508-8.565c1.772-4.647.3-5.535-5.884-3.559-6.073,1.939-8.246.732-8.246-4.583,0-3.969-1.225-5.984-2.721-4.478s-4.754,1.042-7.238-1.032c-3.119-2.6-4.5.726-4.466,10.76.033,9.5,2.569,15.948,7.325,18.626,4,2.253,6.4,5.514,5.338,7.248s3.084,2.419,9.219,1.522c7.523-1.1,17.216,2.488,29.767,11.016,14.348,9.749,18.918,11.248,19.949,6.544,2.039-9.3,5.908-7.56,23.526,10.592,8.911,9.182,18.014,16.087,20.227,15.344,4.666-1.565,15.461,8.566,25.42,23.859,6.968,10.7,17.08,15.265,12.138,5.48-1.445-2.861,1.237-.781,5.96,4.622s8.559,12.893,8.524,16.645c-.055,5.924-.591,6-4.073.579-3.564-5.548-4.053-5.548-4.4,0-.268,4.284-1.044,4.61-2.476,1.04-3.335-8.315-21.261-6.505-20.583,2.079.364,4.61-2.839,7.769-8.732,8.612-5.118.732-9.306,3.32-9.306,5.751,0,2.754-6.234,3.578-16.544,2.187-13.509-1.823-16.561-.969-16.636,4.654-.05,3.787-3.732,11.567-8.18,17.289s-8.129,12.973-8.18,16.114c-.078,4.841-1.184,4.841-7.259,0-6.649-5.3-6.636-4.875.172,5.85,8.084,12.735,6.691,16.942-10.4,31.411-11.668,9.878-15.474,26.921-7.165,32.088,6.076,3.778,12.746,22.558,9.746,27.44-3.586,5.838-14.463-4.492-20.807-19.762-3.92-9.435-8.958-13.687-18.489-15.6-20.322-4.089-28.611-3.158-28.611,3.216,0,3.764-2.893,5.091-8.107,3.719-9.365-2.464-34.524,11.955-43.6,24.986-7.967,11.444-7.863,25.159.323,42.515,7.616,16.148,13.785,19.335,30.8,15.911,8.515-1.714,13.19-5.6,14.879-12.37,1.355-5.43,4.588-10.015,7.185-10.19s7.971-.945,11.943-1.71c10.789-2.079,12.519,4.407,5.051,18.938-3.673,7.146-5.626,14.051-4.341,15.344s.2,4.941-2.409,8.105c-3.931,4.765-2.062,5.456,10.868,4.023,25.61-2.839,30.673.125,30.431,17.818-.41,29.864,9.233,42.3,25.859,33.346,5.482-2.952,10.472-2.947,15.973.015,10.641,5.73,11.135,5.628,20.175-4.134,4.3-4.643,11.352-9.163,15.671-10.045a112.785,112.785,0,0,0,15.771-4.749c5.551-2.206,7.023-1.691,4.926,1.722-1.645,2.678-1.02,4.868,1.389,4.868a4.179,4.179,0,0,0,4.38-3.914c0-2.153,4.985-1.312,11.078,1.868s12.894,4.652,15.115,3.272,2.84-.562,1.377,1.82,1.506,5.455,6.6,6.828c13.015,3.51,16.315,3.2,13.572-1.263-1.309-2.13-.2-5.229,2.463-6.885,3.024-1.88,3.734-1.207,1.891,1.793-2.744,4.466,3.016,6.451,17.183,5.922,2.844-.106,5.2,2.876,5.245,6.627.1,9.547,28.294,31.952,44.168,35.1,16,3.179,30.206,14.657,30.206,24.409,0,3.934,1.982,8.385,4.406,9.891,2.883,1.792,1.848,5.833-2.992,11.689-4.069,4.922-4.77,6.631-1.559,3.8,4.738-4.181,10.79-2.415,32.087,9.363,14.436,7.984,29.617,14.515,33.736,14.515s10.743,3.619,14.722,8.042,9.851,7.031,13.049,5.8c4.207-1.624,5.815,1.237,5.815,10.344,0,8.875-5.429,18.988-18.4,34.279-10.121,11.93-19.662,27.531-21.2,34.669-4.248,19.685-22.8,43.45-37.946,48.591-7.393,2.511-13.442,7.185-13.442,10.388s-5.118,9.134-11.374,13.18-14.731,11.534-18.833,16.639C771.533,851.228,749.4,868.957,740.2,867.33c-7.144-1.263-9.179.08-8.272,5.463,1.289,7.652-7.621,20.9-14.056,20.9-2.148,0-14.018,8.784-26.379,19.52-14.928,12.966-20.811,20.553-17.523,22.6,3.475,2.161,1.934,5.643-5.169,11.687-9.487,8.071-9.667,8.963-2.881,14.272,3.981,3.115,7.238,6.643,7.238,7.84,0,5.277-15.626,5.44-28.08.292Zm-16.64-715.709c-2.986-1.2-6.553-1.054-7.927.328s1.068,2.366,5.429,2.186c4.818-.2,5.8-1.186,2.5-2.514Zm28.03-18.873c.081-1.645-2.645-1.913-6.058-.6-3.625,1.4-6.23.048-6.267-3.251-.052-4.6-.746-4.562-3.75.212-2.236,3.553-1.909,9.783.831,15.833l4.517,9.974,5.29-9.591c2.91-5.275,5.356-10.936,5.437-12.581Zm-132.206,11.7c0-.832-4.254-4.317-9.454-7.744-8.481-5.59-10.333-5.516-17.993.724-8.3,6.766-8.045,6.978,9.454,7.744,9.9.433,17.993.107,17.993-.724Zm-9.948-21.42c-7.505-5.521-7.523-5.919-.394-8.672,4.11-1.587,14.456-1.009,22.993,1.283,13.167,3.536,15.16,3.221,13.14-2.074-1.541-4.04-.685-5.187,2.426-3.253,2.643,1.644,8.078,1.072,12.077-1.271,6.6-3.869,6.464-4.272-1.518-4.386-6.737-.1-8.789-2.722-8.789-11.245,0-6.115-3.49-13.686-7.755-16.824s-7.29-6.561-6.721-7.607c2.863-5.265.355-10.224-5.17-10.224-3.412,0-6.2-2.029-6.2-4.508s-2.327-3.669-5.17-2.643-8.472.156-12.508-1.934c-5.7-2.95-9.711-.961-17.955,8.9-5.84,6.982-12.114,11.764-13.943,10.627s-4.384.708-5.678,4.1-1.024,5.753.6,5.245,8.154,4.365,14.511,10.827c7.232,7.352,14.03,10.8,18.161,9.2,8.53-3.293,22.813,1.24,19.729,6.262-1.3,2.124-5.164,3.862-8.576,3.862-3.636,0-4.983-1.988-3.253-4.8,1.843-3,1.133-3.674-1.891-1.793-2.663,1.656-3.772,4.754-2.463,6.885s.409,3.874-2,3.874a4.287,4.287,0,0,1-4.38-4.161c0-7.321-15.5-4.448-17.5,3.244-2.273,8.745,7.36,19.815,11.449,13.158,1.835-2.988,4.255-2.986,7.837.005,2.85,2.38,6.407,3.1,7.9,1.589s2.722-.241,2.722,2.81,1.393,4.147,3.1,2.434-.444-5.719-4.771-8.9Zm30.628-22.415c0-2.154,1.84-5.06,4.089-6.458,2.345-1.458,3.038.213,1.625,3.916-2.75,7.209-5.714,8.528-5.714,2.542ZM493,192.665c-4.416-3.36-5.854-6.169-3.2-6.242,7.857-.215,17.916,4.633,17.916,8.635C507.717,200.512,502.111,199.6,493,192.665Zm138.8,40.586c0-.492-3.527-2.793-7.838-5.114-5.588-3.009-9.049-2.752-12.057.894-3.172,3.846-1.228,5.114,7.838,5.114,6.631,0,12.056-.4,12.056-.894Zm-62.04-9.509c0-2.289-2.9-4.161-6.448-4.161s-5.3,1.873-3.892,4.161,4.308,4.161,6.448,4.161A4.045,4.045,0,0,0,569.757,223.742Zm14.476,0c-1.406-2.289-3.377-4.161-4.38-4.161s-1.824,1.873-1.824,4.161a4.287,4.287,0,0,0,4.38,4.161C584.818,227.9,585.639,226.031,584.233,223.742ZM449.812,202.8c-5.247-3.529-4.45-5.734,5.17-14.3,6.256-5.571,11.374-12.449,11.374-15.285s-2.64-1.524-5.866,2.915-7.259,6.669-8.961,4.956-.924-3.114,1.73-3.114,4.825-2.809,4.825-6.242c0-8.076-7.825-8.093-10.9-.024-1.3,3.42-4.068,5.163-6.142,3.874a4.537,4.537,0,0,1-1.391-6.218c1.309-2.13.518-3.874-1.756-3.874s-5.305,1.9-6.734,4.229a4.991,4.991,0,0,1-6.89,1.56c-2.767-1.721-2.3-3.939,1.32-6.246,4.569-2.913,4.459-3.562-.592-3.494-7.853.106-28.782,11.926-21.47,12.125,2.978.081,4.371,1.845,3.1,3.921s1.873,2.894,6.994,1.82l9.312-1.953-9.533,5.731-9.533,5.731,11.49,5.267c8.288,3.8,11.921,3.966,13.037.6s3.216-3.275,7.545.339c4.834,4.036,4.956,5.672.632,8.432-3.5,2.231-1.04,3.424,7.042,3.424,9.662,0,11.035-.923,6.2-4.172Zm-15.673-14.862c-5.91-6.433-1.919-7.664,6.809-2.1,3.086,1.968,4.017,4.551,2.068,5.741s-5.943-.448-8.877-3.641Zm162.361-1.02c-2.33-2.468-10.2,3.787-10.2,8.108,0,2.244,2.6,1.665,5.787-1.286s5.168-6.021,4.411-6.822Zm-117.735,6.063c0-.9-2.888-2.75-6.419-4.114-3.681-1.421-5.341-.723-3.892,1.635,2.429,3.954,10.311,5.848,10.311,2.478Zm-62.927-42.222c3.575-3.132,1.528-4.244-7.411-4.028-6.792.164-15.614,3.921-19.6,8.349-7.106,7.886-7.072,7.9,1.642.637,9.252-7.711,16.8-3.429,11.722,6.652-1.44,2.861-.069,2.393,3.047-1.04s7.888-8.189,10.6-10.568Zm33.976,6.162c0-2.424-1.861-3.25-4.136-1.835s-4.136,3.4-4.136,4.407,1.861,1.835,4.136,1.835a4.29,4.29,0,0,0,4.136-4.407ZM428.02,125.152c-4.024-1.055-9.608-.986-12.408.154s.492,2,7.317,1.918S432.045,126.207,428.02,125.152Zm32.243-4.635c-1.273-1.281-4.611,0-7.417,2.841-4.054,4.11-3.579,4.588,2.315,2.329,4.079-1.563,6.375-3.889,5.1-5.171Zm47.455-5.21a3.715,3.715,0,0,0-3.447-3.916c-1.9,0-3.446,2.727-3.446,6.059s1.551,5.094,3.446,3.916a8,8,0,0,0,3.447-6.059Zm-16.59-8.163c-2.46-4.625-3.1-10.71-1.42-13.524,1.921-3.219.421-2.966-4.049.683-6.655,5.433-6.664,6.285-.153,13.524,9.056,10.068,11.2,9.808,5.622-.683ZM470.15,109.9c-.948-.822-7.307-2.752-14.131-4.288-9.062-2.039-10.735-1.653-6.2,1.431,5.585,3.8,24.486,6.457,20.336,2.856ZM433.27,98.526c5.515-3.924,5.515-4.21,0-2.579-3.412,1.009-9.927-.091-14.476-2.445-7.395-3.826-7.67-3.546-2.6,2.643,6.61,8.062,8.682,8.351,17.072,2.381ZM453.95,92.8c0-3.866-2.406-5.182-6.551-3.582-5.274,2.036-5.476,3.215-1.034,6.047,7.346,4.685,7.585,4.607,7.585-2.465Zm109.192-2.211c16.249,0-.382-9.123-18.31-10.044-10.808-.555-19.439-3.578-22.588-7.911-7.37-10.141-10.388-8.665-10.388,5.082,0,9.916,1.443,11.714,8.014,9.985,4.408-1.16,12.242.871,17.41,4.512,6.2,4.373,10.787,5.221,13.493,2.5,2.254-2.267,7.82-4.123,12.37-4.123Zm-92.647,0a4.287,4.287,0,0,0-4.38-4.161c-2.409,0-3.23,1.873-1.824,4.161s3.377,4.161,4.38,4.161,1.824-1.873,1.824-4.161ZM582.944,50.291c-2.986-1.2-6.553-1.054-7.927.329s1.068,2.366,5.429,2.186c4.818-.2,5.8-1.186,2.5-2.514ZM692.575,961.777c-4.41-4.437,1.231-9.822,10.289-9.822,7.117,0,7.679,1.037,3.386,6.242-5.56,6.74-9.507,7.774-13.674,3.581ZM249.224,860.555c-11.374-13.338-21.43-23.534-22.349-22.659s-6.082-4.427-11.478-11.784c-10.033-13.681-23.97-23.551-33.629-23.814-2.978-.081-4.31,1.65-2.96,3.847,1.466,2.386-2.547,2.24-9.967-.362-9.692-3.4-15.282-10.447-25.448-32.081-20.949-44.587-21.2-45.684-11.6-50.856,4.825-2.6,7.491-7.1,6.2-10.479-1.242-3.258-.456-5.923,1.747-5.923s4.006-2.927,4.006-6.5c0-4.356,3.073-6.073,9.306-5.2,6.456.9,9.322-.839,9.359-5.686.029-3.844,1.425-8.369,3.1-10.056s3.049-1.032,3.049,1.456,5.584,5.758,12.408,7.266,12.408,5.1,12.408,7.985,5.118,7.824,11.374,10.979,12.4,6.3,13.654,6.981,1.516-5.341.582-13.39c-2.081-17.932,5.718-19.69,9.547-2.152,1.5,6.866,4.294,12.484,6.212,12.484s5.767,7.022,8.555,15.6,8.981,19.641,13.763,24.575c12.46,12.855,19.035,21.441,19.035,24.857,0,1.633,2.933,6.229,6.517,10.214,8.707,9.68,10.768,40.875,3.4,51.459-3.179,4.566-5.78,11.595-5.78,15.619,0,4.373-4.244,8.389-10.546,9.98-10.42,2.631-10.445,2.735-2.068,8.638,8.278,5.833,11.563,14.108,5.376,13.541-1.706-.156-12.408-11.2-23.781-24.536Zm32.447-64.824c-1.347-3.531-3.336-5.529-4.42-4.438s-.744,3.98.755,6.421c4.078,6.639,6.462,5.349,3.665-1.983Zm38.1,81.7c-2.46-4.005,29.258-21.138,39.332-21.247,4.97-.053,4.926-.718-.272-4.1-4.887-3.177-5-4.047-.517-4.1,4.107-.046,5-3.532,3.205-12.547-1.4-7.042-.724-12.484,1.551-12.484a4.111,4.111,0,0,1,4.033,4.161c0,2.288,3.893,8.078,8.651,12.865l8.651,8.7-9.685,6.871c-5.327,3.778-10.616,6.887-11.753,6.907s-7.939,4.247-15.115,9.393c-13.716,9.836-24.186,11.914-28.082,5.572Zm39.887-101.077c-2.73-2.746-4.963-6.491-4.963-8.322,0-6.131,6.23-3.414,11.448,4.994C371.794,782.136,367.561,784.309,359.654,776.354Zm650.581-4.369c1.66-5.15,4.715-29.961,6.787-55.135,2.231-27.1,6.406-50.53,10.232-57.434,5.442-9.817,5.692-14.9,1.583-32.129-2.714-11.381-3.631-27.912-2.065-37.233,2.541-15.131,1.973-16.765-5.82-16.765-4.919,0-8.636-2.686-8.636-6.242,0-7.866-7.944-7.8-18.4.152-4.43,3.371-11.339,5.08-15.354,3.8s-10.893-.4-15.285,1.97c-10.375,5.586-28.187-7.86-36.3-27.408-3.163-7.617-8.056-13.389-10.873-12.825-3.66.732-5.121-6.877-5.121-26.665,0-15.229,1.464-26.779,3.254-25.667s2.864-4.217,2.386-11.843,2.69-20.418,7.039-28.429,7.931-17.373,7.96-20.806,1.911-5.979,4.183-5.659c5.692.8,27.9-15.5,25.041-18.384-1.273-1.281.769-5.758,4.539-9.949s5.407-7.62,3.639-7.62-.661-3.277,2.461-7.282c5.145-6.6,5-6.747-1.562-1.571-3.981,3.141-7.471,4.545-7.755,3.121s-.792-4.931-1.127-7.792-4.092-4.59-8.348-3.842c-6.859,1.205-7.394-.449-4.711-14.564,1.665-8.758,2.868-20.325,2.673-25.7-.552-15.236,3.234-17.754,16.4-10.9,11.334,5.9,12.173,5.808,12.173-1.287,0-4.191-4.653-13.966-10.34-21.722-12.307-16.783-12.36-17.022-3.1-14.094,6.55,2.072,6.609,1.763.624-3.251-7.174-6.01-7.624-7.152-8.341-21.146-.361-7.045-.948-7.56-2.371-2.081-1.04,4.005-4.33,7.282-7.31,7.282-7.6,0-11.261-16.619-4.255-19.324a6.25,6.25,0,0,0,3.354-8.115c-1.647-4.317-.246-5.164,5.115-3.094,5.79,2.235,6.792,1.3,4.644-4.33-1.726-4.525-1.123-6.175,1.632-4.463,2.4,1.495,3.323,5.463,2.043,8.819s2.266,14.379,7.88,24.495,9.268,21.694,8.121,25.727c-1.185,4.167-.025,3.411,2.687-1.751,3.945-7.509,3.169-11.695-4.48-24.146-5.089-8.284-8.448-15.871-7.465-16.86,2.437-2.452,26.559,32.381,30.018,43.346,1.531,4.854,4.139,8.825,5.795,8.825,6.332,0,50.2,98.242,50.2,112.422,0,3.645-3,2.418-8.433-3.447-7.576-8.181-16.383-12.086-16.383-7.264,0,2.864,17.17,31.446,18.891,31.446.841,0,.359-3.07-1.073-6.822-2.135-5.6-1.239-6.055,5-2.543,4.181,2.354,7.968,7.765,8.415,12.024s1.993,13.362,3.436,20.227,5.349,31.642,8.681,55.057c6.549,46.02,3.333,105.368-8.563,158.018-3.209,14.2-5.845,31.991-5.857,39.53-.039,22.95-8.1,45.658-17.047,48.011-4.482,1.179-12.742,11.264-18.357,22.411-10.613,21.07-17.39,27.154-12.151,10.9Zm27.656-399.333c-2.968-2.986-4.894-3.232-4.894-.624,0,5.554,4.891,10.475,7.652,7.7C1041.823,378.543,1040.582,375.36,1037.89,372.652Zm-10.9-.139c-3.458-15.866-17.607-40.491-23.287-40.53-7.565-.049-18.036,17.331-15.341,25.464,1.006,3.037,5.41,5.71,9.787,5.94,21.5,1.131,26.531,2.09,26.079,4.963-.756,4.818.308,9.363,2.192,9.363.936,0,1.192-2.341.568-5.2ZM445.675,753.962c0-3.624,2.21-5.847,4.912-4.941,7.669,2.572,8.941,11.53,1.637,11.53a6.588,6.588,0,0,1-6.549-6.589Zm14.518-5.827c-1.429-2.326.3-4.229,3.85-4.229,7.265,0,8.335,2.5,2.6,6.064a4.746,4.746,0,0,1-6.448-1.835Zm-86.554-11.066c-3.463-9.078,1.135-13.3,6.02-5.526s5,12.363.281,12.363C377.909,743.905,375.073,740.828,373.639,737.068Zm-35.5-42.967c0-2.217-2.792-2.953-6.2-1.635-7.539,2.91-8.22-4.115-.986-10.156,3.866-3.228,6.445-1.742,9.951,5.732,2.6,5.549,3.047,10.089.986,10.089A3.908,3.908,0,0,1,338.138,694.1ZM257.4,688.747a49.082,49.082,0,0,1-13.588-12.141c-5.754-8.094-17.344-10.394-17.344-3.442,0,2.289-3.723,4.161-8.272,4.161s-8.272-1.873-8.272-4.161S206.2,669,201.649,669s-8.272-1.873-8.272-4.161a4.178,4.178,0,0,1,4.171-4.161c8.167,0-5.7-15.835-19.778-22.592q-14.117-6.773-11.8-12.9c1.387-3.636-.079-6.119-3.61-6.119-3.585,0-5,2.478-3.564,6.242,1.732,4.542-.489,6.242-8.158,6.242-5.8,0-11.689-1.873-13.095-4.161s1.276-4.161,5.96-4.161,8.749-1.873,9.033-4.161.75-5.878,1.034-7.976c.838-6.185,6.721-10.523,6.721-4.956,0,2.8,1.65,4.074,3.667,2.82s5.967.508,8.779,3.916,3.58,6.2,1.71,6.2-1.247,2.168,1.386,4.817c3.627,3.649,6.256,3.591,10.841-.237,4.857-4.055,10.049-3.016,26.285,5.261,11.128,5.673,22.67,13.27,25.649,16.882s10.544,6.566,16.812,6.566c11.514,0,22.905-8.857,17.887-13.907-1.5-1.506-.66-2.738,1.86-2.738,8.821,0,9.556,8.292,1.5,16.986-5.447,5.881-10.852,7.9-16.407,6.126-14.468-4.62-15.345,6.554-1.492,19.008C272.3,690,271.477,696.555,257.4,688.746Zm49.25-12.187c-1.924-3.131-.729-3.951,3.424-2.348,3.508,1.354,8.256.573,10.552-1.736,2.807-2.824,5.083-2.718,6.952.325,1.529,2.488,2.2,4.663,1.5,4.833-13.125,3.175-20.021,2.845-22.428-1.074ZM120.444,664.2c-1.972-3.19-8.638-9.032-14.814-12.983C89.817,641.1,83.9,629.031,93.027,625.506c3.87-1.494,5.693-1.365,4.051.287-4.188,4.213,9.615,18.625,14.769,15.421,2.379-1.48,2.967-.582,1.346,2.057-1.74,2.832,1.276,5.731,7.633,7.336,11.333,2.862,12.338,4.888,6.793,13.694-3.031,4.813-4.148,4.8-7.175-.1Zm13.408-1.118c1.242-3.256,5.113-7.022,8.6-8.37,4.548-1.756,5.629-.572,3.816,4.18-1.391,3.646-2.528,7.412-2.528,8.37S141.01,669,137.669,669c-3.553,0-5.137-2.457-3.816-5.92Zm158.789-2.4c-5.578-10.486-.917-10.486,12.408,0,10.231,8.051,10.243,8.138,1.18,8.23-5.038.051-11.153-3.652-13.588-8.23Zm-132.354-1.835c0-1.009,1.861-2.992,4.136-4.407s4.136-.589,4.136,1.835a4.291,4.291,0,0,1-4.136,4.407c-2.275,0-4.136-.826-4.136-1.835Zm14.819-5.929c-1.782-2.9-2.122-6.4-.757-7.771,3.7-3.724,7.738,1.753,5.738,7.787-1.4,4.229-2.375,4.225-4.981-.017Zm-57.5-15.753c-1.551-1.56-3.04-11.419-3.309-21.909-.412-16.06-.9-17.138-3.1-6.824-1.437,6.736-4.009,11.886-5.715,11.443a32.643,32.643,0,0,0-6.778-.8c-8.4,0-8.866-28.427-.79-48.449,7.941-19.688,9.041-19.37,10.692,3.1,1.174,15.973,5.961,21.4,17.007,19.274,6.479-1.246,9.855.045,9.855,3.77,0,3.116-4.188,5.783-9.306,5.929l-9.306.264,9.306,3.764c5.118,2.07,9.278,6.164,9.243,9.1-.049,4.107-.882,4.035-3.619-.31-1.956-3.105-4.6-3.952-5.868-1.882s-.6,6.483,1.488,9.807a25.4,25.4,0,0,1,3.537,12.285c-.206,4.889-.749,5.012-2.505.569-1.579-3.994-3.1-4.283-5.126-.978-1.586,2.582-4.153,3.418-5.7,1.858ZM529.094,623.23c2.082-6.284,8.733-6.931,10.685-1.04.948,2.861-1.379,5.2-5.17,5.2s-6.273-1.873-5.515-4.161Zm-347.789-5.9c-.18-4.387.8-6.844,2.172-5.461s1.521,4.972.326,7.976c-1.32,3.32-2.3,2.334-2.5-2.514ZM79.367,593.062c-4.738-39-4.806-40.776-1.635-42.747,1.613-1,4.214,9.844,5.779,24.1s3.865,30.14,5.11,35.29S89,619.07,86.7,619.07s-5.6-11.7-7.338-26.007Zm64.081,24.967c-3.111-10.529-3.045-21.851.158-27.376,3.081-5.313,4.064-2.779,4.16,10.73.069,9.727-.8,17.685-1.942,17.685s-2.206-.468-2.375-1.04Zm186.43-34.419c0-3.482-4.653-8.464-10.34-11.071-9-4.125-14.324-11.727-8.216-11.727,3.814,0,20.549,10.3,23.664,14.564,4.408,6.036,3.84,14.564-.971,14.564-2.275,0-4.136-2.849-4.136-6.331Zm-206.8-26.958c-3-5.643-3.048-8.323-.145-8.323,2.355,0,4.281-2.919,4.281-6.487s1.861-5.33,4.136-3.916c5.3,3.3,5.431,27.048.146,27.048-2.195,0-5.983-3.745-8.418-8.322ZM102.46,543.374c.035-3,1.868-8.256,4.073-11.689,3.26-5.074,4.021-4.537,4.073,2.875.035,5.014-1.8,10.274-4.073,11.689s-4.108.121-4.073-2.875ZM77.047,530.644C75.408,489.125,90.036,393.937,98.523,390.9c2.131-.763,3.874-5.59,3.874-10.726,0-11.274,19.241-60.575,26.66-68.313,4.39-4.578,5.741-4.363,7.884,1.256,1.647,4.319.941,5.757-1.946,3.963-3-1.865-3.623.062-1.845,5.7,1.8,5.707-.011,11.046-5.492,16.182-8.7,8.158-16.989,26.568-16.989,37.746,0,5.652,1,5.436,6.073-1.311,3.34-4.443,6.132-13.227,6.2-19.521s1.993-11.443,4.268-11.443c7.478,0,4.32,28.52-5.17,46.686-7.97,15.255-9.5,16.469-10.628,8.45-.727-5.149-2.836-9.363-4.688-9.363-8.072,0-12.034,51.386-4.331,56.176,6.88,4.278,5.055,19.971-2,17.245-9.112-3.518-13.352,8.525-13.706,38.931-.479,41.088-.541,41.612-4.969,41.612-2.275,0-4.376-6.086-4.67-13.524Zm38.7-.66q1.906-10.032-3.089-8.1c-6.555,2.53-12.251-31.476-6.279-37.483,2.966-2.984,4.292-.595,4.292,7.729,0,7.366,4.263,16.525,10.971,23.568,9.162,9.622,10.1,12.574,5.7,17.913-7.882,9.554-13.748,7.717-11.592-3.631Zm486.292-69.873c3.86-3.884,6.066-3.884,9.927,0S614.72,465.1,607,465.1s-8.824-1.11-4.963-4.993Zm25.645.6c0-2.648,2.638-3.8,5.862-2.551a6.479,6.479,0,0,0,8.243-3.98c1.442-3.781,4.432-4.958,7.581-2.987,2.86,1.791,9.209,2.735,14.11,2.1s10.129.825,11.618,3.249c1.51,2.459-.6,4.521-4.775,4.666-4.115.142-15.392,1.172-25.06,2.289q-17.571,2.029-17.578-2.785Zm57.078-.6c3.86-3.884,6.066-3.884,9.927,0s2.757,4.993-4.963,4.993S680.9,463.995,684.759,460.111Zm-95.434-22.4c-6.31-3.443-13.577-4.951-16.149-3.352-2.863,1.78-3.532,1.045-1.726-1.9,1.876-3.054-.241-4.8-5.809-4.8-4.818,0-7.856,1.471-6.752,3.27s-1.577,3.27-5.96,3.27c-11,0-9.982-5.794,1.985-11.28,8.031-3.682,14.82-2.664,35.156,5.27,24.775,9.665,32.224,16.278,17.965,15.95-3.981-.092-12.4-2.983-18.71-6.426Zm369.248-55.579a4.291,4.291,0,0,1,4.136-4.407c2.275,0,4.136.826,4.136,1.835s-1.861,2.992-4.136,4.407-4.136.589-4.136-1.835Zm8.272-76.981c0-1.009,1.861-2.992,4.136-4.407s4.136-.589,4.136,1.835a4.29,4.29,0,0,1-4.136,4.407c-2.275,0-4.136-.826-4.136-1.835Zm-818.939-20.56c0-3.433,1.861-7.4,4.136-8.814s4.136.237,4.136,3.67-1.861,7.4-4.136,8.814S147.908,288.019,147.908,284.586Zm16.544-.246c0-1.009,1.861-2.992,4.136-4.407s4.136-.589,4.136,1.835a4.29,4.29,0,0,1-4.136,4.407c-2.275,0-4.136-.826-4.136-1.835Zm24.816-22.887a4.291,4.291,0,0,1,4.136-4.407c2.275,0,4.136.826,4.136,1.835s-1.861,2.992-4.136,4.407-4.136.589-4.136-1.835Zm6.11-37.85c-1.4-2.279-4.743-2.818-7.43-1.2-2.782,1.679-2.442-.082.792-4.093,5.9-7.322,19.214-9.492,22.764-3.712,1.125,1.831-1.471,5.537-5.768,8.237-5.046,3.171-8.714,3.441-10.358.765Zm546.837-58.578c-4.119-2.41-10.265-3.311-13.657-2-3.483,1.345-5.068.59-3.641-1.732,1.39-2.262.246-4.114-2.543-4.114-9.169,0,.189-5.509,11.4-6.712,12.88-1.382,35.908,9.442,32.363,15.211-3.186,5.186-14.475,4.878-23.925-.652Z" transform="translate(-75.549 -39.11)" opacity="0.33" fill="url(#radial-gradient)"/>
</svg>
