<svg xmlns="http://www.w3.org/2000/svg" width="60" height="60" viewBox="0 0 60 60">
  <path id="Icon_awesome-globe-americas" data-name="Icon awesome-globe-americas" d="M30,.563a30,30,0,1,0,30,30A30,30,0,0,0,30,.563Zm9.954,43.258c-.472.469-.967.962-1.368,1.365a2.891,2.891,0,0,0-.746,1.3c-.183.685-.33,1.377-.577,2.041l-2.1,5.667A24.175,24.175,0,0,1,30,54.756V51.444c.2-1.527-.924-4.386-2.738-6.2a3.871,3.871,0,0,1-1.133-2.737V38.635a3.858,3.858,0,0,0-1.991-3.383c-1.738-.962-4.211-2.306-5.9-3.158A17.438,17.438,0,0,1,14.4,29.462l-.1-.087a13.886,13.886,0,0,1-2.185-2.509C10.989,25.2,9.14,22.46,7.939,20.679A24.325,24.325,0,0,1,20.423,8.354l2.9,1.453a1.936,1.936,0,0,0,2.8-1.731V6.709a24.176,24.176,0,0,1,2.95-.293L32.5,9.84a1.936,1.936,0,0,1,0,2.738l-.567.566-1.251,1.251a.968.968,0,0,0,0,1.368l.567.567a.968.968,0,0,1,0,1.368l-.968.968a.969.969,0,0,1-.685.283H28.512a.967.967,0,0,0-.675.275l-1.2,1.167a.969.969,0,0,0-.191,1.126l1.886,3.773a.968.968,0,0,1-.865,1.4h-.682a.967.967,0,0,1-.634-.237l-1.123-.975a1.938,1.938,0,0,0-1.881-.375L19.377,26.36a1.446,1.446,0,0,0-.189,2.665l1.34.67a8.192,8.192,0,0,0,3.667.866c1.273,0,2.733,3.3,3.871,3.871H36.14a3.873,3.873,0,0,1,2.737,1.133l1.656,1.656a3.69,3.69,0,0,1,1.08,2.609,5.629,5.629,0,0,1-1.66,3.99ZM50.444,32.77a2.9,2.9,0,0,1-1.712-1.206L46.557,28.3a2.9,2.9,0,0,1,0-3.22l2.37-3.554a2.9,2.9,0,0,1,1.118-.986l1.57-.785a23.436,23.436,0,0,1,2.359,13.9Z" transform="translate(0 -0.563)" fill="#343434"/>
</svg>
