<svg xmlns="http://www.w3.org/2000/svg" width="1885.803" height="475.994" viewBox="0 0 1885.803 475.994">
  <g id="weFlyAnywhere" transform="translate(0.613 1.205)">
    <text id="We_Fly_Everywhere" data-name="We Fly Everywhere" transform="translate(644 322.959)" fill="#69a4e8" font-size="80" font-family="Calibri-Bold, Calibri" font-weight="700"><tspan x="0" y="0">We Fly Everywhere</tspan></text>
    <path id="Path_6" data-name="Path 6" d="M0,2887.523l404.044-313.483,256.011,149.775" transform="translate(0 -2574.041)" fill="none" stroke="#707070" stroke-width="2" stroke-dasharray="15"/>
    <path id="Path_7" data-name="Path 7" d="M1186.009,2965.894l172.415,81.854,428.427-155" transform="translate(0 -2574.041)" fill="none" stroke="#707070" stroke-width="2" stroke-dasharray="15"/>
    <path id="btt-airplane" d="M68.57,44.91a2.325,2.325,0,0,1,.092.681,3.686,3.686,0,0,1-.139.919c0-.17-.415-.383-.415-.383l-.058.3-.323.009-.011-.477-9.79-3.277s-.011-.409-.058-.417c-.011.408.023.681-.046.715-.092-.025-10.835-3.547-11.07-3.643-.1-.043-.046-.391-.046-.391l-2.767-.306-.011.272s-5.823-.6-5.985-.528.15,4.7-.127,7.831a24.148,24.148,0,0,1-.957,5.422c-.194.564-.035.689.334.928s7.783,4.29,8.406,4.639.623.5.623.706c0,.272.011,2.068.011,2.068L35.915,58.12s-.058.757-.208.868a.787.787,0,0,1-.461.068,10.378,10.378,0,0,1-.323,1.677.9.9,0,0,1-.311.153s-.46,1.624-.672,1.666v0h-.009v0c-.212-.043-.672-1.666-.672-1.666a.893.893,0,0,1-.311-.153,10.353,10.353,0,0,1-.323-1.677.787.787,0,0,1-.461-.068c-.15-.111-.208-.868-.208-.868l-10.32,1.855s.011-1.8.011-2.068c0-.207.011-.364.623-.706s8.037-4.4,8.406-4.639.528-.364.334-.928a24.148,24.148,0,0,1-.957-5.422c-.277-3.132.034-7.754-.127-7.831s-5.985.528-5.985.528l-.011-.272-2.767.306s.058.349-.046.391c-.235.1-10.977,3.617-11.07,3.643-.069-.034-.034-.306-.046-.715-.046.008-.058.417-.058.417L.154,45.957l-.011.477-.323-.009-.058-.3s-.415.213-.415.383a3.7,3.7,0,0,1-.138-.919A2.337,2.337,0,0,1-.7,44.91s-.334.077-.3-.247a6.441,6.441,0,0,1,.888-1.149.606.606,0,0,0,.051-.241c-.012-.116.18-.191.281-.257.059-.038-.006-.249-.006-.249S3.459,40.714,9.08,37.5s12.253-7.15,12.253-7.15a3.181,3.181,0,0,0-.061-.545,4.006,4.006,0,0,0-.108-.454s-.338-.079-.431-.284a8.886,8.886,0,0,1-.215-2.258,5.184,5.184,0,0,1,.2-1.68c.092-.159.4-.229.8-.272a22.74,22.74,0,0,1,2.414.023c.368.038.6.079.661.465a15.475,15.475,0,0,1,.031,2.258c-.033.388-.169.828-.092.851s1.414-.942,2.152-1.328a10.324,10.324,0,0,0,2.152-1.441c.154-.25.169-.284.261-.057a.612.612,0,0,1-.046.613c-.123.159-.184.363-.062.454.046.034.415-.193.507-.329s0-.4.062-.511a1.573,1.573,0,0,0,.292-.715c-.061-1.623-.136-4.051-.154-9.363-.019-5.683.058-7.381,1.03-10.418.883-2.757,1.546-3.3,1.886-3.7A2.33,2.33,0,0,1,33.932,1h.009a2.331,2.331,0,0,1,1.319.658c.34.4,1,.943,1.886,3.7.972,3.037,1.049,4.734,1.03,10.418-.017,5.311-.092,7.74-.154,9.363a1.579,1.579,0,0,0,.292.715c.061.113-.031.375.062.511s.461.363.507.329c.123-.091.062-.3-.062-.454a.611.611,0,0,1-.046-.613c.092-.227.108-.193.262.057a10.308,10.308,0,0,0,2.152,1.441c.738.386,2.076,1.35,2.152,1.328s-.059-.463-.092-.851a15.474,15.474,0,0,1,.031-2.258c.061-.386.293-.427.661-.465a22.692,22.692,0,0,1,2.414-.023c.4.043.707.113.8.272a5.183,5.183,0,0,1,.2,1.68,8.894,8.894,0,0,1-.215,2.258c-.092.2-.431.284-.431.284a3.913,3.913,0,0,0-.108.454,3.167,3.167,0,0,0-.062.545s6.642,3.938,12.253,7.15,8.865,5.27,8.865,5.27-.065.211-.006.249c.1.066.293.141.281.257a.606.606,0,0,0,.051.241,6.442,6.442,0,0,1,.888,1.149c.034.323-.3.247-.3.247ZM1.316,42.523l-.65.368.056.054.656-.371Zm1.3-.737-1.23.7.062.051,1.225-.693-.056-.054Zm1.306-.739-1.233.7.056.054L3.975,41.1Zm1.646-.931L4,41l.049.058,1.578-.893-.054-.055Zm1.518-.858-1.445.817.054.055,1.446-.818-.056-.054Zm1.534-.868-1.461.826.056.054,1.458-.825Zm1.586-.9L8.7,38.348l.053.056,1.523-.862Zm1.6-.906-1.527.864.063.05,1.517-.858-.052-.056Zm1.588-.9-1.514.857.052.056,1.509-.854Zm1.576-.892-1.5.85.047.059,1.508-.853Zm1.515-.857-1.442.815.053.056,1.444-.817ZM18,33.083l-1.44.815.055.054,1.432-.81L18,33.083Zm1.783-1.009-1.71.967.048.059,1.7-.963-.04-.064Zm.466-.264-.391.221.039.063.388-.22-.036-.065Zm1.461-.826-1.385.783.036.065,1.4-.795Zm24.441,0-.056.054,1.4.795.036-.065-1.385-.784Zm1.461.826-.036.065.388.22.039-.063Zm.467.264-.04.064,1.7.963.047-.059-1.71-.967Zm1.783,1.009-.048.059,1.432.81.055-.054-1.44-.815Zm1.514.856-.055.054,1.444.817.052-.056Zm1.515.857-.053.056,1.508.853.047-.059-1.5-.85Zm1.576.892-.047.059,1.509.854.052-.056-1.515-.857Zm1.588.9-.052.056,1.517.858.063-.05Zm1.6.906-.063.05,1.523.862.053-.056Zm1.586.9-.053.056,1.458.825.056-.054-1.461-.826Zm1.534.868-.056.054,1.446.818.054-.055Zm1.518.858-.054.055,1.578.893L63.87,41Zm1.646.931-.049.058,1.225.693.056-.054Zm1.306.739-.056.054,1.225.693.062-.051-1.23-.7Zm1.3.737-.062.051.656.371.056-.054Z" transform="translate(1861.442 252.112) rotate(69)" fill="#004663"/>
    <path id="btt-airplane-2" data-name="btt-airplane" d="M68.57,44.91a2.325,2.325,0,0,1,.092.681,3.686,3.686,0,0,1-.139.919c0-.17-.415-.383-.415-.383l-.058.3-.323.009-.011-.477-9.79-3.277s-.011-.409-.058-.417c-.011.408.023.681-.046.715-.092-.025-10.835-3.547-11.07-3.643-.1-.043-.046-.391-.046-.391l-2.767-.306-.011.272s-5.823-.6-5.985-.528.15,4.7-.127,7.831a24.148,24.148,0,0,1-.957,5.422c-.194.564-.035.689.334.928s7.783,4.29,8.406,4.639.623.5.623.706c0,.272.011,2.068.011,2.068L35.915,58.12s-.058.757-.208.868a.787.787,0,0,1-.461.068,10.378,10.378,0,0,1-.323,1.677.9.9,0,0,1-.311.153s-.46,1.624-.672,1.666v0h-.009v0c-.212-.043-.672-1.666-.672-1.666a.893.893,0,0,1-.311-.153,10.353,10.353,0,0,1-.323-1.677.787.787,0,0,1-.461-.068c-.15-.111-.208-.868-.208-.868l-10.32,1.855s.011-1.8.011-2.068c0-.207.011-.364.623-.706s8.037-4.4,8.406-4.639.528-.364.334-.928a24.148,24.148,0,0,1-.957-5.422c-.277-3.132.034-7.754-.127-7.831s-5.985.528-5.985.528l-.011-.272-2.767.306s.058.349-.046.391c-.235.1-10.977,3.617-11.07,3.643-.069-.034-.034-.306-.046-.715-.046.008-.058.417-.058.417L.154,45.957l-.011.477-.323-.009-.058-.3s-.415.213-.415.383a3.7,3.7,0,0,1-.138-.919A2.337,2.337,0,0,1-.7,44.91s-.334.077-.3-.247a6.441,6.441,0,0,1,.888-1.149.606.606,0,0,0,.051-.241c-.012-.116.18-.191.281-.257.059-.038-.006-.249-.006-.249S3.459,40.714,9.08,37.5s12.253-7.15,12.253-7.15a3.181,3.181,0,0,0-.061-.545,4.006,4.006,0,0,0-.108-.454s-.338-.079-.431-.284a8.886,8.886,0,0,1-.215-2.258,5.184,5.184,0,0,1,.2-1.68c.092-.159.4-.229.8-.272a22.74,22.74,0,0,1,2.414.023c.368.038.6.079.661.465a15.475,15.475,0,0,1,.031,2.258c-.033.388-.169.828-.092.851s1.414-.942,2.152-1.328a10.324,10.324,0,0,0,2.152-1.441c.154-.25.169-.284.261-.057a.612.612,0,0,1-.046.613c-.123.159-.184.363-.062.454.046.034.415-.193.507-.329s0-.4.062-.511a1.573,1.573,0,0,0,.292-.715c-.061-1.623-.136-4.051-.154-9.363-.019-5.683.058-7.381,1.03-10.418.883-2.757,1.546-3.3,1.886-3.7A2.33,2.33,0,0,1,33.932,1h.009a2.331,2.331,0,0,1,1.319.658c.34.4,1,.943,1.886,3.7.972,3.037,1.049,4.734,1.03,10.418-.017,5.311-.092,7.74-.154,9.363a1.579,1.579,0,0,0,.292.715c.061.113-.031.375.062.511s.461.363.507.329c.123-.091.062-.3-.062-.454a.611.611,0,0,1-.046-.613c.092-.227.108-.193.262.057a10.308,10.308,0,0,0,2.152,1.441c.738.386,2.076,1.35,2.152,1.328s-.059-.463-.092-.851a15.474,15.474,0,0,1,.031-2.258c.061-.386.293-.427.661-.465a22.692,22.692,0,0,1,2.414-.023c.4.043.707.113.8.272a5.183,5.183,0,0,1,.2,1.68,8.894,8.894,0,0,1-.215,2.258c-.092.2-.431.284-.431.284a3.913,3.913,0,0,0-.108.454,3.167,3.167,0,0,0-.062.545s6.642,3.938,12.253,7.15,8.865,5.27,8.865,5.27-.065.211-.006.249c.1.066.293.141.281.257a.606.606,0,0,0,.051.241,6.442,6.442,0,0,1,.888,1.149c.034.323-.3.247-.3.247ZM1.316,42.523l-.65.368.056.054.656-.371Zm1.3-.737-1.23.7.062.051,1.225-.693-.056-.054Zm1.306-.739-1.233.7.056.054L3.975,41.1Zm1.646-.931L4,41l.049.058,1.578-.893-.054-.055Zm1.518-.858-1.445.817.054.055,1.446-.818-.056-.054Zm1.534-.868-1.461.826.056.054,1.458-.825Zm1.586-.9L8.7,38.348l.053.056,1.523-.862Zm1.6-.906-1.527.864.063.05,1.517-.858-.052-.056Zm1.588-.9-1.514.857.052.056,1.509-.854Zm1.576-.892-1.5.85.047.059,1.508-.853Zm1.515-.857-1.442.815.053.056,1.444-.817ZM18,33.083l-1.44.815.055.054,1.432-.81L18,33.083Zm1.783-1.009-1.71.967.048.059,1.7-.963-.04-.064Zm.466-.264-.391.221.039.063.388-.22-.036-.065Zm1.461-.826-1.385.783.036.065,1.4-.795Zm24.441,0-.056.054,1.4.795.036-.065-1.385-.784Zm1.461.826-.036.065.388.22.039-.063Zm.467.264-.04.064,1.7.963.047-.059-1.71-.967Zm1.783,1.009-.048.059,1.432.81.055-.054-1.44-.815Zm1.514.856-.055.054,1.444.817.052-.056Zm1.515.857-.053.056,1.508.853.047-.059-1.5-.85Zm1.576.892-.047.059,1.509.854.052-.056-1.515-.857Zm1.588.9-.052.056,1.517.858.063-.05Zm1.6.906-.063.05,1.523.862.053-.056Zm1.586.9-.053.056,1.458.825.056-.054-1.461-.826Zm1.534.868-.056.054,1.446.818.054-.055Zm1.518.858-.054.055,1.578.893L63.87,41Zm1.646.931-.049.058,1.225.693.056-.054Zm1.306.739-.056.054,1.225.693.062-.051-1.23-.7Zm1.3.737-.062.051.656.371.056-.054Z" transform="matrix(-0.53, 0.848, -0.848, -0.53, 733.869, 157.241)" fill="#004663"/>
  </g>
</svg>
